# xmcd
#
# Track frame offsets: 
#        150
#        19607
#        42440
#        60727
#        77770
#        101177
#        119407
#        136665
#        161815
#        178867
#        203120
#        239837
#
# Disc length: 3241 seconds
#
# Revision: 7
# Processed by: cddbd v1.5.2PL0 Copyright (c) Steve Scherf et al.
# Submitted via: ExactAudioCopy v1.1
#
DISCID=aa0ca70c
DTITLE=Keane - Perfect Symmetry
DYEAR=2008
DGENRE=Pop
TTITLE0=Spiralling
TTITLE1=The Lovers Are Losing
TTITLE2=Better Than This
TTITLE3=You Haven't Told Me Anything
TTITLE4=Perfect Symmetry
TTITLE5=You Don't See Me
TTITLE6=Again And Again
TTITLE7=Playing Along
TTITLE8=Pretend That You're Alone
TTITLE9=Black Burning Heart
TTITLE10=Love Is The End
TTITLE11=UK Exclusive Bonus Content
EXTD=
EXTT0=
EXTT1=
EXTT2=
EXTT3=
EXTT4=
EXTT5=
EXTT6=
EXTT7=
EXTT8=
EXTT9=
EXTT10=
EXTT11=
PLAYORDER=
